<svg width="26" height="26" viewBox="0 0 26 26" fill="none" xmlns="http://www.w3.org/2000/svg">
<path d="M25.3047 12.5128C25.7693 12.0019 25.7244 11.2189 25.2046 10.7643L13.7521 0.743293C13.2323 0.288705 12.3989 0.298227 11.89 0.764761L0.398554 11.2986C-0.110331 11.7651 -0.135307 12.5471 0.343255 13.0446L0.631361 13.3446C1.10934 13.8421 1.88194 13.9014 2.3559 13.4767L3.21471 12.7076V23.9672C3.21471 24.658 3.77447 25.2173 4.46479 25.2173H8.94417C9.63449 25.2173 10.1942 24.658 10.1942 23.9672V16.09H15.9078V23.9672C15.8978 24.6575 16.3917 25.2168 17.0821 25.2168H21.8291C22.5194 25.2168 23.0792 24.6575 23.0792 23.9667V12.8661C23.0792 12.8661 23.3164 13.074 23.609 13.3312C23.9011 13.5879 24.5147 13.382 24.9792 12.8707L25.3047 12.5128Z" fill="#EE008F"/>
</svg>
